<svg xmlns="http://www.w3.org/2000/svg" viewBox="0 0 52 52">
    <!-- White background -->
    <rect width="52" height="52" fill="white"/>

    <g transform="translate(4, 0)">
        <defs>
            <linearGradient id="armGradient" x1="0%" y1="0%" x2="100%" y2="0%">
                <stop offset="0%" style="stop-color:#4a5568"/>
                <stop offset="50%" style="stop-color:#718096"/>
                <stop offset="100%" style="stop-color:#4a5568"/>
            </linearGradient>
            <linearGradient id="jointGradient" x1="0%" y1="0%" x2="100%" y2="100%">
                <stop offset="0%" style="stop-color:#60a5fa"/>
                <stop offset="100%" style="stop-color:#3b82f6"/>
            </linearGradient>
        </defs>
        <!-- Base/mount -->
        <rect x="2" y="46" width="12" height="6" rx="1.5" fill="#2d3748"/>
        <rect x="0" y="44" width="16" height="3" rx="1" fill="#4a5568"/>
        <!-- Upper arm (almost vertical from shoulder to elbow) -->
        <path d="M5 42 L7 22 L13 22 L11 42 Z" fill="url(#armGradient)"/>
        <!-- Shoulder joint -->
        <circle cx="8" cy="44" r="5" fill="url(#jointGradient)"/>
        <circle cx="8" cy="44" r="2.5" fill="#1e3a5f"/>
        <!-- Forearm (angled from elbow to wrist) -->
        <path d="M8 19 L30 10 L32 15 L10 24 Z" fill="url(#armGradient)"/>
        <!-- Elbow joint -->
        <circle cx="10" cy="22" r="4.5" fill="url(#jointGradient)"/>
        <circle cx="10" cy="22" r="2.2" fill="#1e3a5f"/>
        <!-- Wrist joint -->
        <circle cx="31" cy="13" r="3.5" fill="url(#jointGradient)"/>
        <circle cx="31" cy="13" r="1.7" fill="#1e3a5f"/>
        <!-- Gripper base -->
        <rect x="32" y="9" width="5" height="8" rx="1" fill="#4a5568"/>
        <!-- Gripper fingers (half closed) -->
        <path d="M37 9 L40 7 L41 9 L38 10 Z" fill="#60a5fa"/>
        <path d="M37 17 L40 19 L41 17 L38 16 Z" fill="#60a5fa"/>
        <!-- Gripper tips -->
        <circle cx="40.5" cy="8" r="1.3" fill="#3b82f6"/>
        <circle cx="40.5" cy="18" r="1.3" fill="#3b82f6"/>
    </g>
</svg>
